HIERARCHY
ROOT hip
{
	OFFSET 0.000000 0.000000 0.000000 
	CHANNELS 6 Xposition Yposition Zposition Xrotation Zrotation Yrotation
	JOINT abdomen
	{
		OFFSET 0.000000 3.402643 0.000000 
		CHANNELS 3 Xrotation Zrotation Yrotation
		JOINT chest
		{
			OFFSET 0.000000 8.438565 -0.680529 
			CHANNELS 3 Xrotation Zrotation Yrotation
			JOINT neck
			{
				OFFSET 0.000000 10.207942 -0.272212 
				CHANNELS 3 Xrotation Zrotation Yrotation
				JOINT head
				{
					OFFSET 0.000000 3.130431 0.000000 
					CHANNELS 3 Xrotation Zrotation Yrotation
					End Site
					{
						OFFSET 0.000000 3.130435 0.000000 
					}
				}
			}
			JOINT lCollar
			{
				OFFSET 3.470700 6.669187 -0.816635 
				CHANNELS 3 Yrotation Zrotation Xrotation
				JOINT lShldr
				{
					OFFSET 3.198488 0.000000 0.000000 
					CHANNELS 3 Zrotation Yrotation Xrotation
					JOINT lForeArm
					{
						OFFSET 10.139888 0.000000 0.000000 
						CHANNELS 3 Yrotation Zrotation Xrotation
						JOINT lHand
						{
							OFFSET 8.370511 0.000000 0.000000 
							CHANNELS 3 Zrotation Yrotation Xrotation
							End Site
							{
								OFFSET 4.083176 0.000000 0.000000 
							}
						}
					}
				}
			}
			JOINT rCollar
			{
				OFFSET -3.470700 6.669187 -0.816635 
				CHANNELS 3 Yrotation Zrotation Xrotation
				JOINT rShldr
				{
					OFFSET -3.198488 0.000000 0.000000 
					CHANNELS 3 Zrotation Yrotation Xrotation
					JOINT rForeArm
					{
						OFFSET -10.139888 0.000000 0.000000 
						CHANNELS 3 Yrotation Zrotation Xrotation
						JOINT rHand
						{
							OFFSET -8.370511 0.000000 0.000000 
							CHANNELS 3 Zrotation Yrotation Xrotation
							End Site
							{
								OFFSET -4.083176 0.000000 0.000000 
							}
						}
					}
				}
			}
		}
	}
	JOINT lThigh
	{
		OFFSET 5.308129 -1.633274 1.361059 
		CHANNELS 3 Xrotation Zrotation Yrotation
		JOINT lShin
		{
			OFFSET -2.041588 -20.007561 0.000000 
			CHANNELS 3 Xrotation Zrotation Yrotation
			JOINT lFoot
			{
				OFFSET 0.000000 -19.190928 -1.224953 
				CHANNELS 3 Xrotation Yrotation Zrotation
				End Site
				{
					OFFSET 0.000000 -2.449906 4.627600 
				}
			}
		}
	}
	JOINT rThigh
	{
		OFFSET -5.308129 -1.633274 1.361059 
		CHANNELS 3 Xrotation Zrotation Yrotation
		JOINT rShin
		{
			OFFSET 2.041588 -20.007561 0.000000 
			CHANNELS 3 Xrotation Zrotation Yrotation
			JOINT rFoot
			{
				OFFSET 0.000000 -19.190928 -1.224953 
				CHANNELS 3 Xrotation Yrotation Zrotation
				End Site
				{
					OFFSET 0.000000 -2.449906 4.627600 
				}
			}
		}
	}
}
MOTION
Frames: 8
Frame Time: 0.016667
-0.108893 48.023769 1.509104 -1.549139 -2.119015 -0.625656 23.347206 -1.337515 1.357736 -22.286295 -0.585573 2.021578 -1.765060 5.461117 -4.580696 0.142498 -7.302682 -3.269237 0.889293 3.642427 -0.010365 -80.401924 6.435805 -22.531219 -14.805065 1.109820 11.543121 -13.370401 15.982488 -3.753688 14.678356 3.767057 -0.010068 76.369232 -8.411969 -13.827581 41.646969 -2.192863 24.583397 19.899611 -13.943901 -4.995880 -23.899595 2.206871 -5.803345 38.620731 -0.744345 -3.007243 -4.512453 -0.301716 -12.196992 7.840693 3.622389 -3.816201 16.131552 1.619916 1.624879 -23.096039 1.766423 13.154952 
-0.131770 47.870506 2.403703 -1.464936 -2.167772 -0.772040 23.376181 -1.015120 1.806876 -22.124697 -0.858668 2.324396 -4.597460 4.399453 -4.671416 3.907478 -6.998530 -3.533251 0.791589 3.359240 -0.010320 -80.696053 6.673141 -25.292908 -14.085633 1.349872 14.154970 -13.596664 15.720225 -3.758109 14.561090 3.288560 -0.009997 76.189766 -7.353220 -13.678147 42.013302 -2.111826 23.648899 20.139702 -13.581592 -4.933800 -24.911659 2.079958 -6.646881 33.777687 -0.971988 -2.758951 -4.009293 -0.893301 -12.230686 8.619564 3.670089 -3.562568 16.750458 1.600009 1.674690 -24.974642 1.529381 13.171391 
-0.166890 47.677830 3.358793 -1.520893 -2.333767 -0.782193 23.489191 -0.741717 2.041097 -21.861118 -0.819568 2.441576 -5.540809 3.769137 -4.208094 4.186489 -6.650020 -3.176028 0.566879 2.773341 -0.010226 -80.877769 6.865701 -28.910610 -13.316739 1.588438 17.268120 -13.574478 15.693026 -3.746199 14.609373 2.949219 0.000000 76.493546 -7.003828 -14.789063 43.157887 -2.139017 23.907537 21.583183 -12.319176 -4.816078 -25.422209 2.216612 -6.668782 29.771154 -1.158490 -2.547765 -4.577202 -1.767231 -12.340976 9.649969 3.843915 -3.420415 17.418060 1.587474 1.708144 -26.781534 1.451266 13.191455 
-0.202003 47.485172 4.313826 -1.567587 -2.490003 -0.782209 23.594589 -0.468377 2.285160 -21.596943 -0.770715 2.558756 -6.484194 3.147642 -3.725806 4.460598 -6.310771 -2.820087 0.342172 2.197207 -0.010133 -81.070259 7.053306 -32.521465 -12.557535 1.866028 20.375513 -13.551660 15.656325 -3.729466 14.658204 2.607422 -0.000444 76.779724 -6.661558 -15.902574 44.299889 -2.160646 24.161022 23.031572 -11.057155 -4.672648 -25.932438 2.353364 -6.691556 25.762716 -1.329014 -2.283946 -5.176219 -2.682217 -12.459200 10.680474 4.031886 -3.263438 18.085217 1.568130 1.760021 -28.586763 1.321731 13.219834 
-0.239010 47.287544 5.319862 -1.751968 -2.675551 -0.752957 23.730289 -0.234164 2.431660 -21.218609 -0.595082 2.617249 -7.211459 2.622618 -3.294267 4.276119 -6.107666 -2.465304 -0.244141 1.328125 0.000000 -80.903145 7.319059 -32.335972 -11.515270 1.830167 19.930979 -12.701872 16.033180 -3.569980 14.892975 2.409600 -0.009840 77.075188 -6.483052 -17.273676 45.244167 -2.152961 24.171558 23.636621 -9.796483 -4.259730 -25.599182 2.509426 -6.746350 21.641096 -1.452163 -2.074276 -5.935485 -3.123811 -12.563044 11.919836 4.216884 -3.129359 18.663721 1.551200 1.807680 -29.935499 1.258931 13.263356 
-0.276020 47.089931 6.325872 -1.927139 -2.870872 -0.713952 23.867188 0.000000 2.587890 -20.849228 -0.409709 2.675783 -7.937376 2.106744 -2.862983 4.094181 -5.904222 -2.111571 -0.839767 0.449362 -0.009841 -80.726921 7.589042 -32.147961 -10.480613 1.793947 19.487165 -11.859580 16.408125 -3.403141 15.127318 2.214248 -0.009797 77.364769 -6.296121 -18.642855 46.185287 -2.149210 24.186054 24.252823 -8.547550 -3.842196 -25.265375 2.675858 -6.821358 17.512579 -1.591234 -1.801381 -6.691335 -3.582209 -12.681395 13.161803 4.413179 -2.988629 19.252916 1.528628 1.835175 -31.280901 1.205988 13.301264 
-0.303429 46.906189 7.415880 -2.250554 -3.027146 -0.655447 23.991137 0.146328 2.646501 -20.337521 -0.117059 2.685541 -8.502454 1.697576 -2.520450 3.494299 -5.836963 -1.806426 -1.591797 -0.488281 0.000000 -80.427116 7.855219 -32.193569 -9.400030 1.754357 18.921185 -11.237989 16.809578 -3.286470 15.410491 2.038420 -0.009756 77.464485 -6.064901 -19.540419 46.338108 -2.115456 23.729588 23.139673 -7.804858 -3.343044 -24.847326 2.685233 -6.884225 15.578630 -1.627933 -1.674735 -7.346976 -3.672209 -12.728317 14.376704 4.518518 -2.852996 20.203371 1.499481 1.909551 -31.919739 1.209118 13.356650 
-0.330831 46.722439 8.505891 -2.574289 -3.183422 -0.596953 24.115391 0.292642 2.705142 -19.825748 0.175588 2.685564 -9.072579 1.297898 -2.168518 2.894155 -5.769541 -1.492561 -2.343993 -1.425382 -0.009754 -80.128830 8.114141 -32.249950 -8.327574 1.708513 18.365702 -10.626802 17.198494 -3.174908 15.693666 1.862593 -0.009714 77.557617 -5.846769 -20.443453 46.502880 -2.080117 23.271372 22.021877 -7.045523 -2.851779 -24.425720 2.724312 -6.942196 13.659551 -1.677315 -1.539410 -7.969784 -3.744694 -12.776871 15.608551 4.626446 -2.732482 21.144066 1.473193 1.964280 -32.567200 1.215754 13.416203 
